<svg height="511pt" viewBox="-96 1 511 511.999" width="511pt" xmlns="http://www.w3.org/2000/svg"><path d="m319.949219 159.726562c0-88.074218-71.652344-159.726562-159.726563-159.726562-88.070312 0-159.722656 71.652344-159.722656 159.726562 0 81.773438 61.773438 149.378907 141.105469 158.632813l-.003907 72.449219-57.070312 92.820312c-3.53125 5.742188-3.679688 12.949219-.390625 18.835938 3.289063 5.886718 9.507813 9.535156 16.253906 9.535156h119.660157c6.746093 0 12.960937-3.648438 16.253906-9.535156 3.289062-5.886719 3.140625-13.09375-.390625-18.839844l-57.078125-92.816406.003906-72.449219c79.332031-9.253906 141.105469-76.859375 141.105469-158.632813zm-282.210938 0c0-67.539062 54.945313-122.488281 122.484375-122.488281 67.542969 0 122.488282 54.949219 122.488282 122.488281 0 67.539063-54.945313 122.484376-122.488282 122.484376-67.539062 0-122.484375-54.945313-122.484375-122.484376zm95.960938 315.035157 26.523437-43.140625 26.527344 43.140625zm0 0" fill="#ffe55a"/><g fill="#ffd500"><path d="m150.914062 37.589844c-3.074218-.230469-6.175781-.351563-9.308593-.351563-67.539063 0-122.488281 54.949219-122.488281 122.488281 0 67.539063 54.949218 122.484376 122.488281 122.484376 3.132812 0 6.234375-.117188 9.308593-.351563-63.207031-4.773437-113.175781-57.726563-113.175781-122.136719 0-64.40625 49.96875-117.359375 113.175781-122.132812zm0 0"/><path d="m319.949219 159.726562c0-88.074218-71.652344-159.726562-159.726563-159.726562-3.125 0-6.226562.101562-9.308594.277344 83.757813 4.839844 150.417969 74.5 150.417969 159.449218 0 80.25-59.496093 146.855469-136.691406 158.054688-2.539063.367188-4.417969 2.546875-4.417969 5.109375v66.453125c0 .957031.265625 1.894531.765625 2.710938l56.308594 91.570312c3.535156 5.746094 3.683594 12.953125.394531 18.839844-3.292968 5.886718-9.511718 9.535156-16.253906 9.535156h18.183594c5.582031 0 11.011718-2.285156 14.617187-6.550781 5.308594-6.277344 5.835938-15.0625 1.675781-21.824219l-57.074218-92.816406.003906-72.449219c79.332031-9.253906 141.105469-76.859375 141.105469-158.632813zm0 0"/><path d="m124.332031 474.761719h9.367188l26.523437-43.136719-4.902344-7.976562c-2.019531-3.285157-6.792968-3.285157-8.8125 0l-26.582031 43.234374c-2.121093 3.441407.359375 7.878907 4.40625 7.878907zm0 0"/></g></svg>